<svg width="714" height="455" viewBox="0 0 714 455" fill="none" xmlns="http://www.w3.org/2000/svg">
<g clip-path="url(#clip0_2_2)">
<path d="M151.455 107.121L178.449 143.97C178.449 143.97 201.464 153.647 228.362 173.079L221.923 183.13C221.923 183.13 177.526 164.95 166.164 157.269L145.417 124.744L151.455 107.121V107.121Z" fill="#A0616A"/>
<path d="M244.503 190.927C247.079 187.157 244.02 180.584 237.671 176.245C231.322 171.906 224.087 171.445 221.511 175.215C218.935 178.985 221.993 185.558 228.342 189.897C234.692 194.235 241.927 194.697 244.503 190.927Z" fill="#A0616A"/>
<path d="M138.261 75.6637L147.095 73.158C147.095 73.158 152.237 73.1679 155.138 78.2186C158.039 83.2694 178.579 128.303 177.606 130.048C176.632 131.792 175.273 132.178 177.018 133.151C178.762 134.125 180.36 133.631 179.17 135.09C177.981 136.549 179.625 139.754 179.625 139.754L156.964 156.473L138.261 75.6637V75.6637Z" fill="#B1D0E0"/>
<path d="M103.988 445.968L114.765 445.967L119.892 404.397L103.986 404.398L103.988 445.968Z" fill="#A0616A"/>
<path d="M140.912 445.724C141.248 446.289 141.425 448.113 141.425 448.77C141.425 450.791 139.787 452.428 137.767 452.428H104.391C103.013 452.428 101.896 451.311 101.896 449.933V448.543C101.896 448.543 100.244 444.367 103.644 439.219C103.644 439.219 107.869 443.25 114.182 436.937L116.043 433.565L129.519 443.42L136.989 444.339C138.623 444.541 140.072 444.308 140.912 445.724V445.724Z" fill="#DAE1E7"/>
<path d="M142.995 435.466L153.623 437.25L165.566 397.104L149.88 394.47L142.995 435.466Z" fill="#A0616A"/>
<path d="M179.449 441.342C179.686 441.955 179.559 443.783 179.45 444.431C179.115 446.424 177.229 447.767 175.237 447.433L142.322 441.903C140.963 441.674 140.046 440.388 140.274 439.029L140.505 437.658C140.505 437.658 139.568 433.266 143.773 428.753C143.773 428.753 147.272 433.428 154.544 428.248L156.939 425.23L168.595 437.182L175.809 439.327C177.387 439.796 178.855 439.807 179.449 441.342H179.449Z" fill="#DAE1E7"/>
<path d="M165.087 222.162C165.087 222.162 179.567 239.114 179.567 254.654C179.567 270.193 179.92 319.008 179.92 319.008C179.92 319.008 171.444 395.215 169.325 401.572C167.206 407.929 166.147 418.524 166.147 418.524L145.663 413.58C145.663 413.58 142.838 341.886 151.314 324.934L130.83 267.015L123.766 430.885H99.9873C99.9873 430.885 87.7432 344.712 94.1002 322.109C94.1002 322.109 79.9735 235.936 83.5052 230.991C87.0369 226.047 165.087 222.162 165.087 222.162V222.162Z" fill="#00909E"/>
<path d="M112.465 53.3476L131.536 54.7602L137.893 65.3553C137.893 65.3553 152.726 71.7123 154.845 80.8947C156.964 90.0771 157.671 197.44 157.671 197.44L168.266 212.98L167.559 226.4L82.7988 230.638V217.735L75.0291 202.385C75.0291 202.385 83.5052 79.482 85.6242 78.7757C87.7432 78.0693 103.989 66.7679 103.989 66.7679L112.465 53.3475V53.3476Z" fill="#B1D0E0"/>
<path d="M121.096 50.7192C134.36 50.7192 145.112 39.9671 145.112 26.7037C145.112 13.4403 134.36 2.68823 121.096 2.68823C107.833 2.68823 97.0808 13.4403 97.0808 26.7037C97.0808 39.9671 107.833 50.7192 121.096 50.7192Z" fill="#A0616A"/>
<path d="M140.279 7.38732C139.057 3.92154 135.667 1.81893 131.993 1.90083C131.837 1.90426 131.682 1.90282 131.528 1.89649C129.677 1.82084 127.901 1.18889 126.087 0.818164C122.706 0.127154 119.14 0.358504 115.877 1.48064C114.862 1.82946 113.847 2.26809 112.774 2.26821C111.701 2.26836 110.533 1.68013 110.271 0.639834C110.209 1.5817 110.147 2.52352 110.085 3.46534C109.736 2.70305 109.387 1.94071 109.038 1.17838L108.339 4.21847L106.099 1.67773C106.299 2.7976 105.646 3.9263 104.762 4.64228C103.878 5.3583 102.786 5.75436 101.74 6.20044C97.2229 8.12582 92.9817 11.5347 91.6802 16.2693C90.8578 19.2606 91.288 22.4353 91.7237 25.5068C92.1088 28.2221 92.5276 31.0313 94.0036 33.3427C94.9497 34.8244 96.3135 36.0712 96.8895 37.7323C97.4265 39.2805 97.2231 41.0531 97.9871 42.5029C98.7543 43.9592 100.338 44.783 101.888 45.3363C103.438 45.8898 105.086 46.2812 106.421 47.2441C107.756 48.2071 109.305 50.981 112.214 50.8317L113.153 49.0682C114.118 48.2814 110.545 48.9052 110.507 47.6601C110.47 46.4151 114.807 45.6459 114.193 44.5625C113.25 42.9012 111.975 41.4553 110.912 39.8676C109.67 38.0109 108.693 35.8416 109.122 33.5754C109.288 32.6939 109.701 31.8612 110.329 31.2208C112.141 29.3748 114.161 30.1862 116.124 30.4503C117.477 30.6324 119.093 30.4221 119.796 29.2515C120.618 27.8818 119.702 26.1395 119.814 24.5461C119.932 22.8578 121.212 21.4733 122.604 20.5108C123.996 19.5483 125.576 18.847 126.829 17.7086C128.081 16.5701 128.973 14.7914 128.427 13.1894C134.363 10.718 135.272 10.4843 141.523 11.9914C141.225 10.4282 140.808 8.88801 140.279 7.38733L140.279 7.38732Z" fill="#DAE1E7"/>
<path d="M38.8936 314.543V241.648C38.8936 239.649 39.7457 237.735 41.2317 236.397C42.7176 235.06 44.7096 234.413 46.6984 234.623C65.1208 232.144 82.4717 233.323 98.1963 240.053C99.9774 240.053 101.426 241.502 101.426 243.283V316.433C101.426 318.214 99.9774 319.663 98.1963 319.663C80.8871 315.603 62.6305 316.66 44.0136 319.663C41.1904 319.663 38.8936 317.366 38.8936 314.543V314.543Z" fill="#E6E6E6"/>
<path d="M38.8936 321.032V247.366C38.8936 243.471 42.0625 240.302 45.9578 240.302C63.5741 235.693 80.9872 235.685 98.1963 240.302C99.9774 240.302 101.426 241.751 101.426 243.532V315.933C101.426 317.712 99.9817 319.159 98.2042 319.164C81.2357 316.211 63.0591 319.087 44.0136 326.152C41.1904 326.152 38.8936 323.855 38.8936 321.032V321.032Z" fill="#F2F2F2"/>
<path d="M79.5721 270.745H63.0995C57.1835 270.745 52.3705 265.932 52.3705 260.016C52.3705 254.1 57.1835 249.287 63.0995 249.287H79.5721C85.4886 249.287 90.3016 254.1 90.3016 260.016C90.3016 265.932 85.4886 270.745 79.5721 270.745Z" fill="#E6E6E6"/>
<path d="M94.6697 126.057L94.04 164.089C94.04 164.089 92.0276 193.729 87.03 227.085L75.1176 227.845C75.1176 227.845 76.5833 175.764 76.0493 162.059L76.8917 131.621L94.6697 126.057H94.6697Z" fill="#A0616A"/>
<path d="M82.1991 250.659C86.7624 250.504 90.25 244.148 89.9887 236.462C89.7275 228.777 85.8164 222.672 81.2531 222.827C76.6898 222.982 73.2023 229.339 73.4635 237.024C73.7248 244.71 77.6358 250.814 82.1991 250.659Z" fill="#A0616A"/>
<path d="M94.4846 77.6373L85.3083 77.9715C85.3083 77.9715 80.4186 79.5632 79.2125 85.2616C78.0065 90.96 69.5522 149.933 71.0153 151.293C72.4785 152.653 73.8902 152.602 72.5299 154.065C71.1696 155.528 69.4979 155.55 71.0782 156.572C72.6584 157.594 72.0811 161.15 72.0811 161.15L97.4606 159.351L94.4846 77.6373V77.6373Z" fill="#B1D0E0"/>
<path d="M699.916 417.428H455.764C454.348 417.428 452.945 417.211 451.595 416.785L451.451 416.727C375.001 378.733 309.455 357.997 251.068 353.332L250.846 353.288C245.07 351.46 241.19 346.163 241.19 340.105V13.8384C241.19 9.38328 243.251 5.31785 246.845 2.68504C250.439 0.0522323 254.936 -0.686538 259.186 0.655742L452.198 61.706C453.353 62.0718 454.554 62.2568 455.764 62.2568H699.916C707.54 62.2568 713.742 68.4594 713.742 76.083V403.602C713.742 411.226 707.54 417.428 699.916 417.428V417.428ZM452.27 414.901C453.403 415.25 454.578 415.428 455.764 415.428H699.916C706.437 415.428 711.742 410.124 711.742 403.602V76.083C711.742 69.562 706.437 64.2568 699.916 64.2568H455.764C454.349 64.2568 452.946 64.0405 451.595 63.6133L258.582 2.56297C254.948 1.41258 251.101 2.04637 248.027 4.29832C244.953 6.55076 243.19 10.0278 243.19 13.8384V340.105C243.19 345.249 246.461 349.752 251.344 351.347C309.942 356.05 375.669 376.839 452.27 414.901L452.27 414.901Z" fill="#3F3D56"/>
<path d="M462.284 402.612C528.854 379.056 603.119 381.76 682.015 400.263C691.92 402.586 701.416 395.129 701.416 384.955V86.8416C701.416 79.6023 696.48 73.2725 689.448 71.5529C606.22 51.2004 528.479 47.4558 459.969 71.6405C454.95 73.4122 449.379 72.4523 445.144 69.2284C387.413 25.2822 328.329 3.24799 267.48 9.7905C259.52 10.6464 253.516 17.4302 253.516 25.4362V326.801C253.516 334.87 259.621 341.617 267.647 342.452C333.141 349.264 393.323 369.908 449.292 401.522C453.255 403.76 457.993 404.131 462.284 402.612V402.612Z" fill="#F2F2F2"/>
<path d="M460.146 385.895C455.612 385.895 451.147 384.649 447.212 382.206C400.207 353.013 348.997 335.959 295.004 331.518C282.346 330.476 272.43 319.679 272.43 306.937V49.522C272.43 36.3101 282.676 25.4844 295.757 24.8764C335.067 23.0434 382.799 40.5742 445.962 80.0268C451.305 83.3633 457.802 84.354 463.788 82.7485C523.816 66.6352 588.886 66.1645 662.72 81.3096C674.182 83.6611 682.502 93.8349 682.502 105.501V356.762C682.502 364.344 679.092 371.387 673.145 376.083C667.155 380.815 659.448 382.511 651.998 380.738C582.152 364.114 522.176 365.315 468.639 384.413C465.859 385.405 462.988 385.895 460.146 385.895ZM301.369 26.7475C299.508 26.7475 297.672 26.7895 295.85 26.8745C283.839 27.4326 274.43 37.3804 274.43 49.5219V306.937C274.43 318.646 283.539 328.568 295.168 329.524C349.48 333.993 400.99 351.145 448.267 380.506C454.149 384.161 461.33 384.897 467.967 382.53L468.303 383.471L467.967 382.53C521.878 363.297 582.227 362.075 652.461 378.792C659.312 380.422 666.398 378.865 671.906 374.514C677.369 370.199 680.502 363.729 680.502 356.762V105.501C680.502 94.7803 672.854 85.4302 662.317 83.2685C588.796 68.1865 524.027 68.6484 464.307 84.6802C457.785 86.4292 450.714 85.3525 444.902 81.7231C385.044 44.3349 339.206 26.7475 301.369 26.7475Z" fill="white"/>
<path d="M455.605 84.2422L453.605 84.2607L456.388 385.437L458.388 385.419L455.605 84.2422Z" fill="white"/>
<path d="M291.927 64.3667L291.299 66.2651L431.332 112.6L431.96 110.701L291.927 64.3667Z" fill="#3F3D56"/>
<path d="M291.927 101.435L291.299 103.333L431.332 149.667L431.96 147.769L291.927 101.435Z" fill="#3F3D56"/>
<path d="M291.927 138.502L291.299 140.4L431.332 186.735L431.96 184.836L291.927 138.502Z" fill="#3F3D56"/>
<path d="M291.927 175.569L291.299 177.468L431.332 223.802L431.96 221.904L291.927 175.569Z" fill="#3F3D56"/>
<path d="M657.141 112.71H489.307V114.71H657.141V112.71Z" fill="#3F3D56"/>
<path d="M657.141 147.718H489.307V149.718H657.141V147.718Z" fill="#3F3D56"/>
<path d="M657.141 182.726H489.307V184.726H657.141V182.726Z" fill="#3F3D56"/>
<path d="M657.141 217.735H489.307V219.735H657.141V217.735Z" fill="#3F3D56"/>
<path d="M657.141 252.743H489.307V254.743H657.141V252.743Z" fill="#3F3D56"/>
<path d="M657.141 287.751H489.307V289.751H657.141V287.751Z" fill="#3F3D56"/>
<path d="M54.2589 437.545C52.193 437.674 51.0512 435.107 52.6142 433.611L52.7697 432.993C52.7492 432.944 52.7286 432.894 52.7079 432.845C50.6187 427.863 43.538 427.897 41.4665 432.886C39.6279 437.315 37.2871 441.75 36.7107 446.432C36.4524 448.499 36.5686 450.605 37.0272 452.633C32.7191 443.222 30.4521 432.946 30.4521 422.612C30.4521 420.016 30.5942 417.419 30.8848 414.829C31.1238 412.711 31.4532 410.605 31.8795 408.519C34.1853 397.242 39.178 386.501 46.3796 377.529C49.8416 375.637 52.7287 372.679 54.4726 369.133C55.0991 367.854 55.59 366.478 55.8225 365.077C55.4285 365.128 54.3369 359.128 54.6341 358.76C54.085 357.927 53.1023 357.512 52.5027 356.699C49.5203 352.656 45.4115 353.362 43.2664 358.857C38.6842 361.169 38.6399 365.005 41.4515 368.693C43.2403 371.04 43.4861 374.216 45.0556 376.728C44.8941 376.935 44.7261 377.135 44.5647 377.342C41.6036 381.14 39.0426 385.222 36.8836 389.511C37.4938 384.744 36.593 379.002 35.0572 375.301C33.309 371.084 30.0323 367.532 27.1468 363.886C23.6808 359.507 16.5734 361.418 15.9628 366.969C15.9569 367.023 15.9511 367.077 15.9455 367.13C16.3741 367.372 16.7939 367.629 17.2041 367.9C19.5436 369.448 18.7351 373.074 15.963 373.502L15.9003 373.512C16.0553 375.055 16.3201 376.586 16.7076 378.091C13.0058 392.407 20.9977 397.621 32.4091 397.855C32.661 397.984 32.9064 398.114 33.1584 398.236C32.0022 401.492 31.0785 404.831 30.3939 408.215C29.7804 411.206 29.354 414.228 29.1151 417.264C28.8179 421.094 28.8438 424.944 29.1668 428.767L29.1474 428.632C28.3271 424.421 26.0407 420.487 22.7208 417.761C17.7752 413.699 10.788 412.203 5.45252 408.937C2.88419 407.365 -0.406926 409.397 0.0413144 412.374L0.0631344 412.517C0.857564 412.84 1.6326 413.214 2.38184 413.634C2.81044 413.876 3.23032 414.133 3.64048 414.404C5.97997 415.951 5.17144 419.578 2.39941 420.006L2.33659 420.016C2.29139 420.022 2.25262 420.029 2.20748 420.035C3.5703 423.271 5.46916 426.274 7.84602 428.864C10.1607 441.361 20.1021 442.547 30.7362 438.908H30.7427C31.9053 443.972 33.604 448.919 35.7871 453.634H53.8073C53.8719 453.434 53.9301 453.227 53.9882 453.027C52.3218 453.13 50.6425 453.033 49.0019 452.73C50.3389 451.089 51.6759 449.436 53.0129 447.795C53.0452 447.763 53.071 447.731 53.0969 447.698C53.775 446.859 54.4597 446.025 55.1378 445.186L55.1382 445.185C55.1807 442.607 54.8717 440.038 54.2594 437.545L54.2589 437.545V437.545Z" fill="#00909E"/>
<path d="M255.81 453.688C255.81 454.348 255.28 454.878 254.62 454.878H1.33017C0.670197 454.878 0.140167 454.348 0.140167 453.688C0.140167 453.028 0.670197 452.498 1.33017 452.498H254.62C255.28 452.498 255.81 453.028 255.81 453.688V453.688Z" fill="#CCCCCC"/>
<path d="M664.19 390.428C676.892 390.428 687.19 380.131 687.19 367.428C687.19 354.726 676.892 344.428 664.19 344.428C651.487 344.428 641.19 354.726 641.19 367.428C641.19 380.131 651.487 390.428 664.19 390.428Z" fill="#142850"/>
<path d="M674.961 366.562L660.69 358.322C660.023 357.937 659.19 358.418 659.19 359.188V366.428H654.909C654.357 366.428 653.909 366.876 653.909 367.428C653.909 367.98 654.357 368.428 654.909 368.428H659.19V375.669C659.19 376.439 660.023 376.92 660.69 376.535L674.961 368.294C675.627 367.909 675.627 366.947 674.961 366.562V366.562Z" fill="white"/>
<path d="M336.668 302.595C337.564 292.346 341.82 282.554 348.63 274.849C355.265 267.342 364.333 262.193 374.112 260.096C379.571 258.925 385.226 258.696 390.754 259.485C392.077 259.674 392.042 261.775 390.705 261.584C381.296 260.242 371.571 261.882 363.116 266.227C354.451 270.68 347.515 277.923 343.23 286.657C340.78 291.652 339.252 297.103 338.768 302.645C338.65 303.986 336.55 303.945 336.668 302.595V302.595Z" fill="white"/>
<path d="M388.426 251.057L404.588 259.032C405.176 259.322 405.273 260.279 404.773 260.692L389.473 273.34C388.437 274.196 386.98 272.683 388.023 271.82L403.324 259.173L403.509 260.833L387.346 252.859C386.133 252.26 387.222 250.463 388.426 251.057V251.057Z" fill="white"/>
</g>
<defs>
<clipPath id="clip0_2_2">
<rect width="713.742" height="454.878" fill="white"/>
</clipPath>
</defs>
</svg>
